<?xml version="1.0" encoding="utf-8"?>
<!-- Generator: Adobe Illustrator 22.1.0, SVG Export Plug-In . SVG Version: 6.00 Build 0)  -->
<svg version="1.1" id="Слой_1" xmlns="http://www.w3.org/2000/svg" xmlns:xlink="http://www.w3.org/1999/xlink" x="0px" y="0px"
	 viewBox="0 0 20 20" style="enable-background:new 0 0 20 20;" xml:space="preserve">
<style type="text/css">
	.st0{fill:#333333;}
</style>
<path class="st0" d="M16.7,17.6c-0.2,0-0.5-0.1-0.6-0.3l-3.5-3.5c-1.1,0.8-2.4,1.3-3.8,1.3c-3.5,0-6.3-2.8-6.3-6.3
	c0-3.5,2.8-6.3,6.3-6.3c3.5,0,6.3,2.8,6.3,6.3c0,1.4-0.4,2.7-1.3,3.8l3.5,3.5c0.4,0.4,0.4,0.9,0,1.3C17.1,17.5,16.9,17.6,16.7,17.6z
	 M8.8,4.2c-2.5,0-4.5,2-4.5,4.5s2,4.5,4.5,4.5c1.2,0,2.3-0.5,3.2-1.3s1.3-2,1.3-3.2C13.3,6.3,11.2,4.2,8.8,4.2z"/>
</svg>
